<svg xmlns="http://www.w3.org/2000/svg" width="1em" height="1em" fill="none" viewBox="0 0 21 20"><path fill="currentColor" d="M10.5 18.333a8.333 8.333 0 1 1 0-16.666c4.583 0 8.333 3.333 8.333 7.5a5 5 0 0 1-5 5h-1.5c-.25 0-.416.166-.416.416 0 .084.083.167.083.25.333.417.5.917.5 1.417.083 1.167-.833 2.083-2 2.083Zm0-15a6.667 6.667 0 0 0 0 13.334c.25 0 .417-.167.417-.417 0-.167-.084-.25-.084-.333-.333-.417-.5-.834-.5-1.334 0-1.166.917-2.083 2.084-2.083h1.416a3.334 3.334 0 0 0 3.334-3.333c0-3.25-3-5.834-6.667-5.834Zm-4.583 5c.666 0 1.25.584 1.25 1.25 0 .667-.584 1.25-1.25 1.25-.667 0-1.25-.583-1.25-1.25 0-.666.583-1.25 1.25-1.25ZM8.417 5c.666 0 1.25.583 1.25 1.25S9.083 7.5 8.417 7.5c-.667 0-1.25-.583-1.25-1.25S7.75 5 8.417 5Zm4.166 0c.667 0 1.25.583 1.25 1.25s-.583 1.25-1.25 1.25c-.666 0-1.25-.583-1.25-1.25S11.917 5 12.583 5Zm2.5 3.333c.667 0 1.25.584 1.25 1.25 0 .667-.583 1.25-1.25 1.25-.666 0-1.25-.583-1.25-1.25 0-.666.584-1.25 1.25-1.25Z"></path></svg>